#!OML:ASF I:\Actors\actors\Patient Classification 2\Patient 1\Session 1\actor1.ASF
:FULLY-SPECIFIED
:DEGREES
399
root -0.499906 18.6895 5.89648 2.48143 -2.88748 -2.41006
lowerback 1.62895 1.34592 -1.1199
upperback -2.14888 1.79158 1.04141
thorax -3.18883 0.933341 1.61885
lowerneck -16.0717 -1.92224 -2.45255
upperneck 33.4584 -2.83333 2.13384
head 14.2017 -1.24227 0.819853
rclavicle 7.87218e-015 1.47101e-014
rhumerus -33.108 48.0987 -86.6205
rradius 108.3
rwrist -9.95534
rhand -17.3196 -50.6217
rfingers 7.12502
rthumb 8.9269 -80.4128
lclavicle 7.87218e-015 1.47101e-014
lhumerus -44.7705 -28.952 103.624
lradius 108.676
lwrist 30.2012
lhand -13.2697 -31.2446
lfingers 7.12502
lthumb 12.8332 -1.65912
rfemur 0 0 0
rtibia 0
rfoot 0 0
rtoes 0
lfemur -3.96511 -7.70499 -12.6893
ltibia 21.7846
lfoot -25.0504 15.7696
ltoes -53.893
400
root -0.503045 18.6904 5.89424 2.50076 -2.87715 -2.42025
lowerback 1.62263 1.34392 -1.13784
upperback -2.14278 1.78839 1.04206
thorax -3.17945 0.932081 1.62995
lowerneck -16.1111 -1.91359 -2.43736
upperneck 33.4826 -2.83066 2.14945
head 14.2213 -1.23657 0.823842
rclavicle 2.04127e-014 8.15017e-015
rhumerus -33.1503 48.3147 -86.7451
rradius 108.082
rwrist -8.5402
rhand -17.6938 -49.9654
rfingers 7.12502
rthumb 8.56586 -79.7716
lclavicle 2.04127e-014 8.15017e-015
lhumerus -44.707 -28.9487 103.61
lradius 108.715
lwrist 30.3184
lhand -13.4649 -31.128
lfingers 7.12502
lthumb 12.645 -1.5308
rfemur 0 0 0
rtibia 0
rfoot 0 0
rtoes 0
lfemur -4.07494 -7.70239 -12.6587
ltibia 21.9323
lfoot -25.1154 15.7209
ltoes -53.8717
401
root -0.506056 18.6906 5.8917 2.50998 -2.89103 -2.44381
lowerback 1.63889 1.34905 -1.15028
upperback -2.14105 1.79497 1.05025
thorax -3.18777 0.935809 1.64467
lowerneck -16.1175 -1.90816 -2.37159
upperneck 33.4715 -2.82876 2.10787
head 14.2156 -1.23308 0.795662
rclavicle 2.11985e-015 4.57205e-015
rhumerus -33.2401 48.56 -86.951
rradius 107.987
rwrist -7.46993
rhand -18.0794 -49.7209
rfingers 7.12502
rthumb 8.1937 -79.542
lclavicle 2.11985e-015 4.57205e-015
lhumerus -44.6486 -28.9622 103.651
lradius 108.74
lwrist 30.2347
lhand -13.3111 -31.2051
lfingers 7.12502
lthumb 12.7933 -1.61711
rfemur 0 0 0
rtibia 0
rfoot 0 0
rtoes 0
lfemur -4.14535 -7.68018 -12.6206
ltibia 22.0387
lfoot -25.1316 15.698
ltoes -53.9077
402
root -0.50925 18.6892 5.88986 2.49099 -2.92418 -2.43509
lowerback 1.67243 1.35761 -1.21651
upperback -2.13806 1.80438 1.06077
thorax -3.20651 0.942309 1.69139
lowerneck -16.1498 -1.91003 -2.33219
upperneck 33.5214 -2.82634 2.05522
head 14.2436 -1.23395 0.767815
rclavicle 4.74443e-015 -4.07509e-015
rhumerus -33.2671 48.8253 -87.1001
rradius 107.919
rwrist -6.60474
rhand -18.4179 -49.5314
rfingers 7.12502
rthumb 7.86704 -79.365
lclavicle 4.74443e-015 -4.07509e-015
lhumerus -44.5735 -28.9501 103.691
lradius 108.718
lwrist 30.3091
lhand -13.2817 -31.2847
lfingers 7.12502
lthumb 12.8216 -1.6985
rfemur 0 0 0
rtibia 0
rfoot 0 0
rtoes 0
lfemur -4.11822 -7.68161 -12.6344
ltibia 22.0421
lfoot -25.123 15.7536
ltoes -53.9552
403
root -0.51146 18.688 5.88861 2.46139 -2.96069 -2.4225
lowerback 1.68797 1.36881 -1.26839
upperback -2.11652 1.81759 1.06398
thorax -3.19538 0.949929 1.72306
lowerneck -16.2264 -1.90684 -2.30799
upperneck 33.6137 -2.81898 2.02359
head 14.3013 -1.23117 0.751859
rclavicle -8.71081e-015 2.41523e-014
rhumerus -33.1842 49.0748 -87.1779
rradius 107.812
rwrist -5.63786
rhand -18.6819 -49.2216
rfingers 7.12502
rthumb 7.61218 -79.0646
lclavicle -8.71081e-015 2.41523e-014
lhumerus -44.4642 -28.932 103.677
lradius 108.651
lwrist 30.5534
lhand -13.6283 -31.2066
lfingers 7.12502
lthumb 12.4875 -1.59975
rfemur 0 0 0
rtibia 0
rfoot 0 0
rtoes 0
lfemur -4.0841 -7.68176 -12.6519
ltibia 22.0641
lfoot -25.1654 15.7573
ltoes -53.8984
404
root -0.514138 18.688 5.88815 2.43617 -3.00017 -2.50145
lowerback 1.67797 1.3869 -1.22273
upperback -2.08024 1.84382 1.08798
thorax -3.15264 0.961687 1.72169
lowerneck -16.2802 -1.90707 -2.29834
upperneck 33.6427 -2.8177 2.01178
head 14.3261 -1.23044 0.745322
rclavicle 2.2708e-014 4.07509e-015
rhumerus -33.076 49.2732 -87.2414
rradius 107.7
rwrist -4.67779
rhand -18.8898 -49.0131
rfingers 7.12502
rthumb 7.41154 -78.8633
lclavicle 2.2708e-014 4.07509e-015
lhumerus -44.3776 -28.9627 103.656
lradius 108.622
lwrist 30.6481
lhand -13.8214 -31.0086
lfingers 7.12502
lthumb 12.3013 -1.39042
rfemur 0 0 0
rtibia 0
rfoot 0 0
rtoes 0
lfemur -4.01434 -7.62987 -12.5572
ltibia 22.0097
lfoot -25.1441 15.735
ltoes -53.8884
405
root -0.519913 18.6873 5.88769 2.40271 -3.03231 -2.68391
lowerback 1.68253 1.40205 -1.1217
upperback -2.04688 1.86897 1.15568
thorax -3.12076 0.972308 1.73392
lowerneck -16.3173 -1.91799 -2.35189
upperneck 33.6628 -2.82847 2.04647
head 14.3456 -1.23674 0.766818
rclavicle -7.42181e-015 5.26779e-015
rhumerus -32.9602 49.4808 -87.296
rradius 107.619
rwrist -4.09093
rhand -18.9587 -48.9054
rfingers 7.12502
rthumb 7.34506 -78.7579
lclavicle -7.42181e-015 5.26779e-015
lhumerus -44.3115 -29.0185 103.65
lradius 108.619
lwrist 30.6754
lhand -13.725 -30.8968
lfingers 7.12502
lthumb 12.3943 -1.2842
rfemur 0 0 0
rtibia 0
rfoot 0 0
rtoes 0
lfemur -3.98171 -7.58813 -12.3346
ltibia 22.0352
lfoot -25.137 15.7231
ltoes -53.9229
406
root -0.534171 18.6912 5.88936 2.57196 -3.12498 -2.24331
lowerback 1.41644 1.42457 -1.84399
upperback -2.07824 1.87863 1.09315
thorax -3.02593 0.992444 2.08035
lowerneck -16.3579 -1.92891 -2.38102
upperneck 33.7049 -2.83864 2.05511
head 14.375 -1.24325 0.773609
rclavicle 2.68934e-014 -4.96962e-016
rhumerus -32.8512 49.7219 -87.359
rradius 107.582
rwrist -3.80188
rhand -18.9424 -48.7273
rfingers 7.12502
rthumb 7.36078 -78.5792
lclavicle 2.68934e-014 -4.96962e-016
lhumerus -44.2689 -29.045 103.66
lradius 108.606
lwrist 30.7062
lhand -13.5864 -30.9465
lfingers 7.12502
lthumb 12.5279 -1.34209
rfemur 0 0 0
rtibia 0
rfoot 0 0
rtoes 0
lfemur -4.14311 -7.64082 -12.7711
ltibia 21.9242
lfoot -25.093 15.9023
ltoes -53.9322
407
root -0.519555 18.6875 5.88209 2.41818 -3.04523 -2.68702
lowerback 1.72337 1.39792 -1.14658
upperback -2.06135 1.86271 1.16305
thorax -3.15959 0.970213 1.75452
lowerneck -16.363 -1.92241 -2.33358
upperneck 33.7183 -2.82976 2.01272
head 14.3802 -1.23923 0.749531
rclavicle -9.00743e-017 1.89839e-014
rhumerus -32.7392 49.9469 -87.4123
rradius 107.577
rwrist -3.58419
rhand -18.857 -48.5912
rfingers 7.12502
rthumb 7.44313 -78.4402
lclavicle -9.00743e-017 1.89839e-014
lhumerus -44.2793 -29.0356 103.67
lradius 108.606
lwrist 30.7052
lhand -13.5387 -31.0383
lfingers 7.12502
lthumb 12.5739 -1.4367
rfemur 0 0 0
rtibia 0
rfoot 0 0
rtoes 0
lfemur -3.89395 -7.57718 -12.33
ltibia 21.7836
lfoot -24.9484 15.8288
ltoes -54.025
408
root -0.54304 18.6922 5.88882 2.64713 -3.21807 -1.99233
lowerback 1.28014 1.44587 -2.28032
upperback -2.10064 1.89613 1.04749
thorax -2.98677 1.01033 2.28046
lowerneck -16.3148 -1.9157 -2.28112
upperneck 33.6977 -2.82651 1.98233
head 14.3583 -1.23577 0.728785
rclavicle 1.42737e-014 -2.98177e-015
rhumerus -32.561 50.1724 -87.4057
rradius 107.593
rwrist -3.62183
rhand -18.6726 -48.6975
rfingers 7.12502
rthumb 7.62117 -78.5402
lclavicle 1.42737e-014 -2.98177e-015
lhumerus -44.3032 -29.0568 103.683
lradius 108.583
lwrist 30.7114
lhand -13.5741 -31.1033
lfingers 7.12502
lthumb 12.5398 -1.49959
rfemur 0 0 0
rtibia 0
rfoot 0 0
rtoes 0
lfemur -4.05914 -7.68446 -13.0327
ltibia 21.5717
lfoot -24.9418 16.1106
ltoes -53.9931
409
root -0.551594 18.694 5.88917 2.71637 -3.29686 -1.73283
lowerback 1.1542 1.47639 -2.70436
upperback -2.11834 1.92712 0.994629
thorax -2.9492 1.03443 2.46561
lowerneck -16.3136 -1.93554 -2.29796
upperneck 33.7087 -2.858 2.00236
head 14.3646 -1.24864 0.73461
rclavicle -1.33621e-014 -1.5704e-014
rhumerus -32.2669 50.4038 -87.2989
rradius 107.624
rwrist -4.07781
rhand -18.3374 -48.8767
rfingers 7.12502
rthumb 7.94469 -78.7074
lclavicle -1.33621e-014 -1.5704e-014
lhumerus -44.3188 -29.1089 103.698
lradius 108.559
lwrist 30.7248
lhand -13.6328 -31.0964
lfingers 7.12502
lthumb 12.4832 -1.48919
rfemur 0 0 0
rtibia 0
rfoot 0 0
rtoes 0
lfemur -4.07792 -7.77955 -13.301
ltibia 21.4463
lfoot -24.9429 16.263
ltoes -53.942
410
root -0.552823 18.6938 5.88682 2.71042 -3.3111 -1.69299
lowerback 1.18141 1.48139 -2.78085
upperback -2.12303 1.93086 0.985427
thorax -2.97209 1.03828 2.49809
lowerneck -16.3633 -1.95096 -2.3657
upperneck 33.7556 -2.87933 2.05885
head 14.4003 -1.25815 0.765722
rclavicle 1.95228e-014 -6.26172e-015
rhumerus -31.8205 50.6285 -87.0124
rradius 107.67
rwrist -5.00751
rhand -17.6929 -49.1096
rfingers 7.12502
rthumb 8.56674 -78.9158
lclavicle 1.95228e-014 -6.26172e-015
lhumerus -44.3463 -29.1289 103.72
lradius 108.596
lwrist 30.6527
lhand -13.551 -31.0018
lfingers 7.12502
lthumb 12.562 -1.39945
rfemur 0 0 0
rtibia 0
rfoot 0 0
rtoes 0
lfemur -3.9712 -7.7648 -13.3359
ltibia 21.2441
lfoot -24.8496 16.243
ltoes -53.8868
